<svg width="153" height="35" viewBox="0 0 153 35" fill="none" xmlns="http://www.w3.org/2000/svg">
<mask id="mask0_3008_8116" style="mask-type:luminance" maskUnits="userSpaceOnUse" x="0" y="0" width="153" height="35">
<path d="M152.999 0.871094H0V34.8711H152.999V0.871094Z" fill="white"/>
</mask>
<g mask="url(#mask0_3008_8116)">
<path d="M36.912 21.4172L30.9766 21.3967C31.6048 19.7972 32.8611 18.5125 34.8134 18.5188C36.1799 18.5251 36.9577 19.4635 36.9545 20.7134C36.9529 20.9496 36.912 21.4172 36.912 21.4172ZM34.9487 13.4415C28.3081 13.4178 23.33 18.6731 23.3048 25.6648C23.2875 30.3926 26.6708 34.4655 33.546 34.4891C38.1164 34.5064 41.6791 31.9041 41.6791 31.9041L39.9788 26.8566C39.9788 26.8566 36.9246 28.8781 33.9963 28.8671C31.4961 28.8577 30.0557 27.5258 30.0635 25.2602L42.7576 25.3043C43.197 24.0332 43.452 22.7056 43.5148 21.362C43.5306 16.7146 40.6511 13.4619 34.9487 13.4415Z" fill="#F37021"/>
<path d="M59.7321 13.5313C56.9581 13.5203 54.1399 15.1923 53.0017 16.9839H52.9229C53.1293 16.3301 53.3012 15.6658 53.4378 14.9939L53.6361 13.9784L47.1136 13.9564L43.1367 34.0579L49.8939 34.0815L51.6445 25.1816C52.2019 22.2549 54.4769 19.6461 57.1328 19.6556C58.3434 19.6588 58.9276 20.1688 58.9228 21.3795C58.9118 21.7723 58.8718 22.1639 58.8032 22.5508L56.4952 34.1035L63.2524 34.1287L65.7587 21.4819C65.9197 20.7503 66.014 20.0058 66.0406 19.2572C66.0548 15.0773 63.2083 13.5439 59.7321 13.5313Z" fill="#F37021"/>
<path d="M76.7492 29.0583C74.797 29.0521 73.591 27.6808 73.5989 25.4924C73.6131 21.5486 76.3557 19.2926 78.6589 19.2988C80.8473 19.3084 81.7776 20.9505 81.7714 22.8664C81.7588 26.6543 78.8982 29.0663 76.7492 29.0583ZM84.9942 6.27734L83.3631 14.5113C83.2844 14.9033 83.2434 15.4117 83.2434 15.4117H83.1663C82.0375 14.0405 79.7736 13.6012 78.0937 13.595C72.1175 13.5761 66.7882 18.5164 66.7598 25.9774C66.7425 31.2121 69.6205 34.619 74.542 34.6364C75.6673 34.6355 76.7768 34.3722 77.7826 33.8674C78.7884 33.3626 79.6625 32.6302 80.3356 31.7285H80.4112C80.4112 31.7285 80.2931 32.2338 80.1734 32.8604L79.8947 34.1877L86.2221 34.2097L91.7513 6.30253L84.9942 6.27734Z" fill="#F37021"/>
<path d="M100.557 29.1046C98.4086 29.0967 96.8515 27.7255 96.8593 25.3813C96.872 21.7098 99.849 19.2979 102.507 19.3058C104.616 19.3152 106.172 20.7652 106.164 23.1488C106.151 26.8203 103.253 29.114 100.557 29.1046ZM102.604 13.6837C96.3146 13.6601 90.0471 18.5988 90.0235 25.6694C90.0046 31.1765 94.3655 34.7078 100.421 34.7282C106.671 34.7503 112.976 29.8524 113.001 22.7426C113.02 17.2749 108.658 13.7058 102.604 13.6837Z" fill="#F37021"/>
<path d="M120.859 20.2726C120.86 19.5311 122.073 19.2226 123.049 19.2256C126.058 19.2382 127.732 20.6883 127.732 20.6883L130.639 16.0896C130.639 16.0896 127.912 13.7752 123.068 13.7579C118.773 13.7437 114.623 16.3446 114.609 20.2506C114.588 26.1891 122.555 26.5292 122.549 28.3255C122.546 29.0292 121.413 29.3378 120.358 29.333C118.514 29.3019 116.731 28.6645 115.286 27.5194L111.912 31.8426C114.325 33.7168 117.282 34.7556 120.338 34.8024C125.378 34.8197 128.824 32.2535 128.838 28.3475C128.86 22.2925 120.855 21.836 120.859 20.2726Z" fill="#F37021"/>
<path d="M140.554 29.2452C138.405 29.2373 136.848 27.8661 136.856 25.5234C136.868 21.8503 139.846 19.4385 142.503 19.4479C144.612 19.4558 146.17 20.9058 146.162 23.2893C146.148 26.9608 143.249 29.2546 140.554 29.2452ZM142.601 13.8243C136.311 13.8022 130.045 18.7394 130.02 25.8099C129.999 31.3171 134.364 34.8483 140.417 34.8688C146.667 34.8908 152.973 29.993 152.998 22.8831C153.018 17.4154 148.655 13.8463 142.601 13.8243Z" fill="#F37021"/>
<path d="M33.9999 8.35089L25.8967 0.871094L25.111 4.86682L14.27 4.82903C8.9959 4.81015 3.37702 8.02343 3.35653 14.017C3.33921 19.1085 7.56166 21.3646 10.6427 23.0113C12.3618 23.9308 13.8465 24.7227 13.8433 25.617C13.8355 27.6904 10.9623 27.7046 10.8395 27.703L1.48936 27.6715L0 34.8332L10.6962 34.871C16.7969 34.8915 21.5924 30.839 21.6097 25.6437C21.6286 20.5097 17.4108 18.3182 14.333 16.717C12.565 15.7992 11.041 15.0073 11.0457 14.0422C11.0505 12.4867 13.1239 11.9924 14.1284 11.994L23.6989 12.0286L22.9353 15.9078L33.9999 8.35089Z" fill="#F37021"/>
</g>
</svg>
